<mxfile host="Electron" modified="2024-08-03T14:25:46.744Z" agent="Mozilla/5.0 (Windows NT 10.0; Win64; x64) AppleWebKit/537.36 (KHTML, like Gecko) draw.io/24.6.4 Chrome/124.0.6367.207 Electron/30.0.6 Safari/537.36" etag="U6DwrN6a7f34kKEMiq5c" version="24.6.4" type="device">
  <diagram name="第 1 页" id="PK4DK350yNcsbT0z6AJg">
    <mxGraphModel dx="687" dy="460" grid="1" gridSize="10" guides="1" tooltips="1" connect="1" arrows="1" fold="1" page="1" pageScale="1" pageWidth="827" pageHeight="1169" math="0" shadow="0">
      <root>
        <mxCell id="0" />
        <mxCell id="1" parent="0" />
        <mxCell id="m0JLSzh_XfqOd7Iuhare-6" style="edgeStyle=orthogonalEdgeStyle;rounded=0;orthogonalLoop=1;jettySize=auto;html=1;exitX=1;exitY=0.5;exitDx=0;exitDy=0;entryX=0;entryY=0.5;entryDx=0;entryDy=0;" edge="1" parent="1" source="m0JLSzh_XfqOd7Iuhare-1" target="m0JLSzh_XfqOd7Iuhare-2">
          <mxGeometry relative="1" as="geometry" />
        </mxCell>
        <mxCell id="m0JLSzh_XfqOd7Iuhare-1" value="DataSets" style="rounded=0;whiteSpace=wrap;html=1;" vertex="1" parent="1">
          <mxGeometry x="40" y="200" width="120" height="60" as="geometry" />
        </mxCell>
        <mxCell id="m0JLSzh_XfqOd7Iuhare-2" value="token" style="shape=process;whiteSpace=wrap;html=1;backgroundOutline=1;" vertex="1" parent="1">
          <mxGeometry x="190" y="200" width="120" height="60" as="geometry" />
        </mxCell>
        <mxCell id="m0JLSzh_XfqOd7Iuhare-8" style="edgeStyle=orthogonalEdgeStyle;rounded=0;orthogonalLoop=1;jettySize=auto;html=1;exitX=1;exitY=0.5;exitDx=0;exitDy=0;entryX=0;entryY=0.5;entryDx=0;entryDy=0;" edge="1" parent="1" source="m0JLSzh_XfqOd7Iuhare-3" target="m0JLSzh_XfqOd7Iuhare-4">
          <mxGeometry relative="1" as="geometry" />
        </mxCell>
        <mxCell id="m0JLSzh_XfqOd7Iuhare-3" value="Weights" style="rounded=0;whiteSpace=wrap;html=1;" vertex="1" parent="1">
          <mxGeometry x="40" y="310" width="120" height="60" as="geometry" />
        </mxCell>
        <mxCell id="m0JLSzh_XfqOd7Iuhare-4" value="parameters" style="shape=process;whiteSpace=wrap;html=1;backgroundOutline=1;" vertex="1" parent="1">
          <mxGeometry x="190" y="310" width="120" height="60" as="geometry" />
        </mxCell>
        <mxCell id="m0JLSzh_XfqOd7Iuhare-5" value="model" style="whiteSpace=wrap;html=1;aspect=fixed;" vertex="1" parent="1">
          <mxGeometry x="360" y="200" width="170" height="170" as="geometry" />
        </mxCell>
        <mxCell id="m0JLSzh_XfqOd7Iuhare-7" style="edgeStyle=orthogonalEdgeStyle;rounded=0;orthogonalLoop=1;jettySize=auto;html=1;exitX=1;exitY=0.5;exitDx=0;exitDy=0;entryX=0;entryY=0.176;entryDx=0;entryDy=0;entryPerimeter=0;" edge="1" parent="1" source="m0JLSzh_XfqOd7Iuhare-2" target="m0JLSzh_XfqOd7Iuhare-5">
          <mxGeometry relative="1" as="geometry" />
        </mxCell>
        <mxCell id="m0JLSzh_XfqOd7Iuhare-9" style="edgeStyle=orthogonalEdgeStyle;rounded=0;orthogonalLoop=1;jettySize=auto;html=1;exitX=1;exitY=0.5;exitDx=0;exitDy=0;entryX=-0.016;entryY=0.82;entryDx=0;entryDy=0;entryPerimeter=0;" edge="1" parent="1" source="m0JLSzh_XfqOd7Iuhare-4" target="m0JLSzh_XfqOd7Iuhare-5">
          <mxGeometry relative="1" as="geometry" />
        </mxCell>
        <mxCell id="m0JLSzh_XfqOd7Iuhare-10" value="precision" style="text;html=1;align=center;verticalAlign=middle;resizable=0;points=[];autosize=1;strokeColor=none;fillColor=none;" vertex="1" parent="1">
          <mxGeometry x="215" y="370" width="70" height="30" as="geometry" />
        </mxCell>
        <mxCell id="m0JLSzh_XfqOd7Iuhare-11" value="connections" style="text;html=1;align=center;verticalAlign=middle;resizable=0;points=[];autosize=1;strokeColor=none;fillColor=none;" vertex="1" parent="1">
          <mxGeometry x="405" y="368" width="90" height="30" as="geometry" />
        </mxCell>
      </root>
    </mxGraphModel>
  </diagram>
</mxfile>
